<svg width="73" height="54" viewBox="0 0 73 54" fill="none" xmlns="http://www.w3.org/2000/svg">
<path id="Vector" fill-rule="evenodd" clip-rule="evenodd" d="M72.5 26.5693C72.5 25.7885 72.2291 25.0397 71.7469 24.4876C71.2647 23.9355 70.6107 23.6253 69.9287 23.6253H9.28289L25.4664 5.10146C25.7055 4.82774 25.8951 4.50278 26.0245 4.14514C26.1539 3.7875 26.2205 3.40419 26.2205 3.01709C26.2205 2.62998 26.1539 2.24667 26.0245 1.88903C25.8951 1.53139 25.7055 1.20644 25.4664 0.932711C25.2274 0.658987 24.9436 0.441859 24.6312 0.29372C24.3188 0.145582 23.9841 0.0693359 23.646 0.0693359C23.3079 0.0693359 22.9731 0.145582 22.6608 0.29372C22.3484 0.441859 22.0646 0.658987 21.8255 0.932711L1.25541 24.485C1.01595 24.7584 0.825973 25.0833 0.696348 25.441C0.566723 25.7987 0.5 26.1821 0.5 26.5693C0.5 26.9566 0.566723 27.34 0.696348 27.6977C0.825973 28.0554 1.01595 28.3802 1.25541 28.6537L21.8255 52.206C22.0646 52.4797 22.3484 52.6968 22.6608 52.845C22.9731 52.9931 23.3079 53.0693 23.646 53.0693C23.9841 53.0693 24.3188 52.9931 24.6312 52.845C24.9436 52.6968 25.2274 52.4797 25.4664 52.206C25.7055 51.9322 25.8951 51.6073 26.0245 51.2496C26.1539 50.892 26.2205 50.5087 26.2205 50.1216C26.2205 49.7345 26.1539 49.3512 26.0245 48.9935C25.8951 48.6359 25.7055 48.3109 25.4664 48.0372L9.28289 29.5134H69.9287C70.6107 29.5134 71.2647 29.2032 71.7469 28.6511C72.2291 28.099 72.5 27.3501 72.5 26.5693Z" fill="white"/>
</svg>
