<svg width="72" height="53" viewBox="0 0 72 53" fill="none" xmlns="http://www.w3.org/2000/svg">
<path id="Vector" fill-rule="evenodd" clip-rule="evenodd" d="M72 26.5C72 25.7192 71.7291 24.9704 71.2469 24.4183C70.7647 23.8661 70.1107 23.556 69.4287 23.556H8.78289L24.9664 5.03212C25.2055 4.7584 25.3951 4.43344 25.5245 4.07581C25.6539 3.71817 25.7205 3.33485 25.7205 2.94775C25.7205 2.56065 25.6539 2.17733 25.5245 1.8197C25.3951 1.46206 25.2055 1.1371 24.9664 0.863375C24.7274 0.589651 24.4436 0.372523 24.1312 0.224384C23.8188 0.076246 23.4841 0 23.146 0C22.8079 0 22.4731 0.076246 22.1608 0.224384C21.8484 0.372523 21.5646 0.589651 21.3255 0.863375L0.755406 24.4156C0.515953 24.6891 0.325973 25.014 0.196348 25.3717C0.0667233 25.7293 0 26.1128 0 26.5C0 26.8872 0.0667233 27.2707 0.196348 27.6283C0.325973 27.986 0.515953 28.3109 0.755406 28.5844L21.3255 52.1366C21.5646 52.4103 21.8484 52.6275 22.1608 52.7756C22.4731 52.9238 22.8079 53 23.146 53C23.4841 53 23.8188 52.9238 24.1312 52.7756C24.4436 52.6275 24.7274 52.4103 24.9664 52.1366C25.2055 51.8629 25.3951 51.5379 25.5245 51.1803C25.6539 50.8227 25.7205 50.4394 25.7205 50.0522C25.7205 49.6651 25.6539 49.2818 25.5245 48.9242C25.3951 48.5666 25.2055 48.2416 24.9664 47.9679L8.78289 29.444H69.4287C70.1107 29.444 70.7647 29.1339 71.2469 28.5817C71.7291 28.0296 72 27.2808 72 26.5Z" fill="#8BB543"/>
</svg>
