<svg width="89" height="76" viewBox="0 0 89 76" fill="none" xmlns="http://www.w3.org/2000/svg">
<path id="Vector" fill-rule="evenodd" clip-rule="evenodd" d="M3.87219 0C3.04339 0 2.24853 0.32924 1.66248 0.915291C1.07643 1.50134 0.747192 2.2962 0.747192 3.125V33.125C0.747192 35.1769 1.15135 37.2087 1.93657 39.1044C2.7218 41.0001 3.87273 42.7226 5.32365 44.1735C8.2539 47.1038 12.2282 48.75 16.3722 48.75H77.5784L56.6597 69.6625C56.0729 70.2493 55.7432 71.0452 55.7432 71.875C55.7432 72.7048 56.0729 73.5007 56.6597 74.0875C57.2465 74.6743 58.0423 75.0039 58.8722 75.0039C59.702 75.0039 60.4979 74.6743 61.0847 74.0875L87.3347 47.8375C87.6257 47.5472 87.8566 47.2024 88.0141 46.8227C88.1717 46.4431 88.2528 46.036 88.2528 45.625C88.2528 45.214 88.1717 44.8069 88.0141 44.4273C87.8566 44.0476 87.6257 43.7028 87.3347 43.4125L62.3347 18.4125C61.7479 17.8257 60.952 17.4961 60.1222 17.4961C59.2923 17.4961 58.4965 17.8257 57.9097 18.4125C57.3229 18.9993 56.9932 19.7952 56.9932 20.625C56.9932 21.4548 57.3229 22.2507 57.9097 22.8375L77.5784 42.5H16.3722C13.8858 42.5 11.5012 41.5123 9.74307 39.7541C7.98491 37.996 6.99719 35.6114 6.99719 33.125V3.125C6.99719 2.2962 6.66795 1.50134 6.0819 0.915291C5.49585 0.32924 4.70099 0 3.87219 0Z" fill="#8BB543"/>
</svg>
